<svg xmlns="http://www.w3.org/2000/svg" width="0" height="0" class="hidden">
    <symbol  id="open-eye" fill="none" width="24" height="24" >
      <path
        d="M12 14a2 2 0 1 0 0-4 2 2 0 0 0 0 4z"
        stroke="#180C2E"
        stroke-width="1.5"
        stroke-linecap="round"
        stroke-linejoin="round"
      />
      <path
        d="M21 12c-1.889 2.991-5.282 6-9 6s-7.111-3.009-9-6c2.299-2.842 4.992-6 9-6s6.701 3.158 9 6z"
        stroke="#180C2E"
        stroke-width="1.5"
        stroke-linecap="round"
        stroke-linejoin="round"
      />
    </symbol>
    <symbol  id="close-eye" fill="none" width="24" height="24">
      <path
        d="M3 3l18 18M10.5 10.677a2 2 0 0 0 2.823 2.823"
        stroke="#180C2E"
        stroke-width="1.5"
        stroke-linecap="round"
        stroke-linejoin="round"
      ></path>
      <path
        d="M7.362 7.561C5.68 8.74 4.279 10.419 3 12c1.889 2.99 5.282 6 9 6 1.55 0 3.043-.523 4.395-1.35M12 6c4.008 0 6.701 3.158 9 6a15.66 15.66 0 0 1-1.078 1.5"
        stroke="#180C2E"
        stroke-width="1.5"
        stroke-linecap="round"
        stroke-linejoin="round"
      ></path>
    </symbol>
</svg>